<svg width="400" height="400" viewBox="0 0 400 400" fill="none" xmlns="http://www.w3.org/2000/svg">
  <defs>
    <linearGradient id="bg" x1="50" y1="40" x2="360" y2="380" gradientUnits="userSpaceOnUse">
      <stop stop-color="#F6F1E8"/>
      <stop offset="1" stop-color="#FFFFFF"/>
    </linearGradient>
    <linearGradient id="cheddar" x1="120" y1="120" x2="320" y2="340" gradientUnits="userSpaceOnUse">
      <stop stop-color="#C8A24D" stop-opacity="0.35"/>
      <stop offset="1" stop-color="#C8A24D" stop-opacity="0.08"/>
    </linearGradient>
  </defs>
  <rect width="400" height="400" rx="56" fill="url(#bg)"/>
  <circle cx="165" cy="205" r="120" fill="#B7D8C3" fill-opacity="0.14"/>
  <path d="M95 250C95 180 150 125 220 125H230C295 125 325 175 325 235C325 310 270 350 210 350C145 350 95 310 95 250Z" fill="url(#cheddar)"/>
  <path d="M170 165C205 145 255 155 280 190" stroke="#1F3A2E" stroke-opacity="0.18" stroke-width="10" stroke-linecap="round"/>
  <path d="M150 230C190 205 235 210 265 245" stroke="#1F3A2E" stroke-opacity="0.14" stroke-width="10" stroke-linecap="round"/>
  <rect x="138" y="255" width="124" height="58" rx="29" fill="#ffffff" fill-opacity="0.82" stroke="#B7D8C3" stroke-opacity="0.6" stroke-width="6"/>
</svg>

